<?xml version="1.0" encoding="utf-8"?>
<!-- Generator: Adobe Illustrator 27.0.1, SVG Export Plug-In . SVG Version: 6.00 Build 0)  -->
<svg version="1.1" id="Layer_1" xmlns="http://www.w3.org/2000/svg" xmlns:xlink="http://www.w3.org/1999/xlink" x="0px" y="0px"
	 viewBox="0 0 464.3 121.7" style="enable-background:new 0 0 464.3 121.7;" xml:space="preserve">
<style type="text/css">
	.st0{clip-path:url(#SVGID_00000041976171616280680850000009624073501497984656_);}
	.st1{fill:#00509E;}
	.st2{fill:#4D4D4F;}
	.st3{fill:#211E20;}
</style>
<g>
	<defs>
		<rect id="SVGID_1_" width="467.8" height="121.7"/>
	</defs>
	<clipPath id="SVGID_00000147924198356384969470000017627452954387354780_">
		<use xlink:href="#SVGID_1_"  style="overflow:visible;"/>
	</clipPath>
	<g style="clip-path:url(#SVGID_00000147924198356384969470000017627452954387354780_);">
		<path class="st1" d="M113,93.6H76.1L46.4,47.3l-7.1,46.3H0.7L17.2,0H54l29.7,46.4c1,0.4,7.1-46.4,7.1-46.4h38.7L113,93.6L113,93.6
			z"/>
		<polygon class="st1" points="190.9,93.6 150.7,93.6 162.5,26.8 129.2,26.8 133.9,0 240.7,0 236,26.8 202.7,26.8 		"/>
		<polygon class="st1" points="326.2,93.6 228.7,93.6 245.2,0 343.1,0 338.9,24.2 281.1,24.2 279.4,34.1 328.1,34.1 323.8,58.3 
			275.1,58.3 273.1,69.4 330.5,69.4 		"/>
		<path class="st1" d="M453.4,93.6h-40.2L409,81.7h-34.7l-4.5,11.9h-40L373.5,0h39.8L453.4,93.6L453.4,93.6z M384.1,59.7h19
			l-9.2-26.3L384.1,59.7z"/>
		<polygon class="st2" points="10.2,105.4 10.2,108.6 7,108.6 7,121.3 3.1,121.3 3.1,108.6 0,108.6 0,105.4 		"/>
		<polygon class="st2" points="22.2,105.4 22.2,111.5 24.9,111.5 24.9,105.4 28.8,105.4 28.8,121.3 24.9,121.3 24.9,114.7 
			22.2,114.7 22.2,121.3 18.2,121.3 18.2,105.4 		"/>
		<polygon class="st2" points="46.4,105.4 46.4,108.6 41.3,108.6 41.3,111.5 46.3,111.5 46.3,114.7 41.3,114.7 41.3,118.1 
			46.7,118.1 46.7,121.3 37.4,121.3 37.4,105.4 		"/>
		<polygon class="st2" points="71.3,105.4 72.5,116.5 72.5,116.5 74.1,105.4 77.9,105.4 79.4,116.5 79.5,116.5 80.7,105.4 
			84.5,105.4 81.7,121.3 77.2,121.3 76,110.1 76,110.1 74.7,121.3 70.3,121.3 67.5,105.4 		"/>
		<path class="st2" d="M102.9,109.7v6.7c0,3.7-1.6,5.3-5.3,5.3s-5.4-1.6-5.4-5.3v-6.7c0-2.8,1.9-4.7,5.4-4.7
			S102.9,106.8,102.9,109.7 M96.1,116.6c0,1.4,0.5,2.2,1.4,2.2c0.9,0,1.4-0.6,1.4-2.2v-6.7c0-1.4-0.4-2-1.4-2
			c-0.9,0-1.4,0.7-1.4,2.1V116.6z"/>
		<path class="st2" d="M117.1,105.4c3.2,0,4.7,1.3,4.7,4.4c0,2.1-0.7,3-2.1,3.6v0c1.1,0.3,1.9,0.7,2,2.6c0.1,2.6,0.2,4.1,0.3,4.4
			c0.1,0.3,0.2,0.5,0.4,0.7v0.2h-4.3c-0.2-0.6-0.3-1.3-0.3-2.6v-1.2c0-1.8-0.5-2.5-1.5-2.5h-1.2v6.2h-3.9v-15.8L117.1,105.4
			L117.1,105.4z M115.2,112.2h1.4c0.9,0,1.4-0.7,1.4-2c0-1.4-0.4-1.9-1.9-1.9h-0.8L115.2,112.2L115.2,112.2z"/>
		<polygon class="st2" points="134.3,105.4 134.3,111.8 134.4,111.8 137.3,105.4 141.3,105.4 137.7,112.4 141.5,121.3 137.4,121.3 
			135.2,115.8 134.3,117.4 134.3,121.3 130.4,121.3 130.4,105.4 		"/>
		<polygon class="st2" points="171.8,105.4 171.8,108.6 168.7,108.6 168.7,121.3 164.7,121.3 164.7,108.6 161.6,108.6 161.6,105.4 
					"/>
		<path class="st2" d="M185.8,105.4c3.2,0,4.7,1.3,4.7,4.4c0,2.1-0.7,3-2.1,3.6v0c1.1,0.3,1.9,0.7,2,2.6c0.1,2.6,0.2,4.1,0.3,4.4
			c0.1,0.3,0.2,0.5,0.4,0.7v0.2h-4.3c-0.2-0.6-0.3-1.3-0.3-2.6v-1.2c0-1.8-0.5-2.5-1.5-2.5h-1.2v6.2h-3.9v-15.8L185.8,105.4
			L185.8,105.4z M183.8,112.2h1.4c0.9,0,1.4-0.7,1.4-2c0-1.4-0.4-1.9-1.9-1.9h-0.9V112.2L183.8,112.2z"/>
		<path class="st2" d="M202.9,105.4v12c0,0.9,0.5,1.4,1.4,1.4s1.3-0.7,1.3-1.5v-11.9h3.9V117c0,3-1.8,4.7-5.3,4.7s-5.3-1.7-5.3-4.7
			v-11.6C198.9,105.4,202.9,105.4,202.9,105.4z"/>
		<path class="st2" d="M228.6,109.6v1.4h-3.9v-1c0-1.2-0.3-2.1-1.4-2.1c-0.9,0-1.4,0.5-1.4,1.6v7.8c0,1.1,0.5,1.5,1.4,1.5
			s1.5-0.7,1.5-2.2v-1.5h3.9v2c0,2.9-1.9,4.5-5.7,4.5c-3.5,0-5.1-1.7-5.1-4.9V110c0-3.2,1.6-4.9,5.3-4.9S228.6,106.7,228.6,109.6"/>
		<polygon class="st2" points="241,105.4 241,111.8 241.1,111.8 244,105.4 248,105.4 244.4,112.4 248.2,121.3 244.1,121.3 
			241.9,115.8 241,117.4 241,121.3 237.1,121.3 237.1,105.4 		"/>
		<path class="st2" d="M277.3,105.4l3.6,15.8h-4l-0.6-3.1h-3.1l-0.5,3.1h-4l3.7-15.8L277.3,105.4L277.3,105.4z M274.9,108.3
			l-1.1,7.1h2.3L274.9,108.3L274.9,108.3L274.9,108.3z"/>
		<path class="st2" d="M298.3,109.8v0.4h-3.6l0-0.7c-0.1-1.1-0.4-1.6-1.4-1.6c-0.8,0-1.2,0.5-1.2,1.3c0,0.7,0.4,1.2,1.8,2
			c1.7,0.9,2.8,1.6,3.2,2c0.8,0.8,1.3,1.8,1.3,3.7c0,3-1.8,4.8-5.1,4.8s-5.1-1.7-5.1-3.9V116h3.6v1.1c0,1.2,0.6,1.7,1.6,1.7
			c0.8,0,1.3-0.6,1.3-1.6c0-0.9-0.5-1.5-1.7-2.1c-1.6-0.9-2.6-1.5-3.1-2c-1-0.9-1.5-2-1.5-3.5c0-2.9,1.8-4.5,5-4.5
			S298.3,106.8,298.3,109.8"/>
		<path class="st2" d="M316.1,109.8v0.4h-3.6l0-0.7c-0.1-1.1-0.4-1.6-1.4-1.6c-0.8,0-1.2,0.5-1.2,1.3c0,0.7,0.4,1.2,1.8,2
			c1.7,0.9,2.8,1.6,3.2,2c0.8,0.8,1.3,1.8,1.3,3.7c0,3-1.8,4.8-5.1,4.8s-5.1-1.7-5.1-3.9V116h3.6v1.1c0,1.2,0.6,1.7,1.6,1.7
			c0.8,0,1.3-0.6,1.3-1.6c0-0.9-0.5-1.5-1.7-2.1c-1.6-0.9-2.6-1.5-3.1-2c-1-0.9-1.5-2-1.5-3.5c0-2.9,1.8-4.5,5-4.5
			S316.1,106.8,316.1,109.8"/>
		<path class="st2" d="M334.9,109.7v6.7c0,3.7-1.6,5.3-5.3,5.3s-5.4-1.6-5.4-5.3v-6.7c0-2.8,1.9-4.7,5.4-4.7
			S334.9,106.8,334.9,109.7 M328.2,116.6c0,1.4,0.5,2.2,1.4,2.2c0.9,0,1.4-0.6,1.4-2.2v-6.7c0-1.4-0.4-2-1.4-2
			c-0.9,0-1.4,0.7-1.4,2.1L328.2,116.6L328.2,116.6z"/>
		<path class="st2" d="M353.9,109.6v1.4H350v-1c0-1.2-0.3-2.1-1.4-2.1c-0.9,0-1.4,0.5-1.4,1.6v7.8c0,1.1,0.5,1.5,1.4,1.5
			s1.5-0.7,1.5-2.2v-1.5h3.9v2c0,2.9-1.9,4.5-5.7,4.5c-3.5,0-5.1-1.7-5.1-4.9V110c0-3.2,1.6-4.9,5.3-4.9S353.9,106.7,353.9,109.6"/>
		<rect x="362.6" y="105.4" class="st2" width="3.9" height="15.8"/>
		<path class="st2" d="M382.9,105.4l3.6,15.8h-4l-0.6-3.1h-3.1l-0.5,3.1h-4l3.7-15.8L382.9,105.4L382.9,105.4z M380.5,108.3
			l-1.1,7.1h2.3L380.5,108.3L380.5,108.3L380.5,108.3z"/>
		<polygon class="st2" points="402.8,105.4 402.8,108.6 399.6,108.6 399.6,121.3 395.7,121.3 395.7,108.6 392.6,108.6 392.6,105.4 
					"/>
		<rect x="411.1" y="105.4" class="st2" width="3.9" height="15.8"/>
		<path class="st2" d="M434.3,109.7v6.7c0,3.7-1.6,5.3-5.3,5.3s-5.4-1.6-5.4-5.3v-6.7c0-2.8,1.9-4.7,5.4-4.7
			S434.3,106.8,434.3,109.7 M427.6,116.6c0,1.4,0.5,2.2,1.4,2.2c0.9,0,1.4-0.6,1.4-2.2v-6.7c0-1.4-0.4-2-1.4-2
			c-0.9,0-1.4,0.7-1.4,2.1L427.6,116.6L427.6,116.6z"/>
		<polygon class="st2" points="446.8,105.4 449.9,114.3 449.9,114.3 449.6,105.4 453.3,105.4 453.3,121.3 449.3,121.3 446.2,112.4 
			446.2,112.4 446.5,121.3 442.8,121.3 442.8,105.4 		"/>
	</g>
</g>
<path class="st3" d="M454.1,88.5c0-2.9,2.3-5,5.1-5s5.1,2.1,5.1,5s-2.3,5-5.1,5S454.1,91.4,454.1,88.5z M459.2,92.6
	c2.3,0,4.1-1.8,4.1-4.2s-1.8-4.2-4.1-4.2s-4.1,1.8-4.1,4.2S457,92.6,459.2,92.6z M458.2,91.4h-0.9v-5.8h2.2c1.4,0,2,0.5,2,1.6
	c0,1-0.6,1.5-1.5,1.6l1.6,2.6h-1l-1.5-2.5h-1L458.2,91.4L458.2,91.4z M459.2,88.1c0.7,0,1.4-0.1,1.4-0.9c0-0.7-0.6-0.8-1.3-0.8h-1.2
	v1.8H459.2L459.2,88.1z"/>
</svg>
